<svg t="1721013810516" class="icon" viewBox="0 0 1024 1024" version="1.1" xmlns="http://www.w3.org/2000/svg" p-id="3152" width="200" height="200"><path d="M261.8 559.3h246.3c16 0 28.9-12.9 28.9-28.9s-12.9-28.9-28.9-28.9H261.8c-16 0-28.9 12.9-28.9 28.9 0.1 16.1 13.1 28.9 28.9 28.9zM261.8 861.7h246.3c16 0 28.9-12.9 28.9-28.9s-12.9-28.9-28.9-28.9H261.8c-16 0-28.9 12.9-28.9 28.9 0.1 16 13.1 28.9 28.9 28.9zM261.8 710.5h246.3c16 0 28.9-12.9 28.9-28.9s-12.9-28.9-28.9-28.9H261.8c-16 0-28.9 12.9-28.9 28.9 0.1 16 13.1 28.9 28.9 28.9zM813 332.8c0-16-12.9-28.9-28.9-28.9H617.8c-16 0-28.9 12.9-28.9 28.9 0.1 16 13 28.9 28.9 28.9h166.3c16 0 28.9-12.9 28.9-28.9zM784.1 152.7H617.8c-16 0-28.9 12.9-28.9 28.9 0.1 16 13 28.9 28.9 28.9h166.3c16 0 28.9-12.9 28.9-28.9s-12.9-28.9-28.9-28.9zM544.9 927.9c1.8 0 3.7-0.4 5.6-1.1l131.4-54.5c9.3-3.9 11.9-15.9 4.9-23.2l-81.4-85.5c-2.9-3-6.6-4.5-10.4-4.5-5.7 0-11.4 3.4-13.6 9.5l-50 140.1c-3.5 9.8 4.1 19.2 13.5 19.2zM1018.8 509.2l-86.6-90.8c-7.5-7.9-20.1-7.9-27.6-0.1L624 710.4c-7.1 7.4-7.1 19-0.1 26.5l86.5 90.8c7.5 7.9 20.1 7.9 27.6 0.1l280.7-292.1c7.1-7.4 7.1-19 0.1-26.5zM275.6 353.2h106.7c23.5 0 42.6-19.1 42.6-42.6V203.8c0-23.5-19.1-42.6-42.6-42.6H275.6c-23.5 0-42.6 19.1-42.6 42.6v106.7c0 23.6 19 42.7 42.6 42.7z" fill="#ffffff" p-id="3153"></path><path d="M912.4 768.7c-18 0-32.6 14.6-32.6 32.5v131.2c0 14.7-11.9 26.6-26.6 26.6H170.6c-14.7 0-26.6-11.9-26.6-26.6v-840c0-14.7 11.9-26.6 26.6-26.6h581.3c0.8 0.1 1.6 0.1 2.4 0.1h98.9c14.7 0 26.6 11.9 26.6 26.6V343c0 18 14.6 32.5 32.5 32.5 18 0 32.5-14.6 32.5-32.5V92.5C944.9 41.9 903.9 1 853.3 1H792c-0.8-0.1-1.6-0.1-2.4-0.1H170.7c-50.5 0-91.6 41-91.6 91.6v839.9c0 50.5 41 91.6 91.6 91.6h682.7c50.5 0 91.6-41 91.6-91.6V801.3c0-18-14.6-32.6-32.6-32.6z" fill="#ffffff" p-id="3154"></path></svg>