<svg t="1721014262439" class="icon" viewBox="0 0 1050 1024" version="1.1" xmlns="http://www.w3.org/2000/svg" p-id="36854" width="200" height="200"><path d="M883.364882 791.47008 726.266872 791.47008C699.847987 854.53824 663.501509 912.98816 621.637425 961.41312 729.723069 937.07264 822.158397 872.00768 883.364882 791.47008L883.364882 791.47008ZM539.519409 973.44512C593.434033 925.34784 638.928666 863.1808 671.818947 791.47008L539.519409 791.47008 539.519409 973.44512ZM539.519409 741.0176 692.186921 741.0176C714.934236 677.39648 728.318029 608.95232 730.86146 537.1392L539.519409 537.1392 539.519409 741.0176ZM780.868634 537.1392C778.509806 608.83968 766.069548 677.4272 745.188782 740.84352L916.511557 741.02784C951.247877 680.35584 972.631173 611.05152 976.589903 537.14944L780.868634 537.14944 780.868634 537.1392ZM407.322429 961.40288C365.468598 912.97792 329.12212 854.528 302.703235 791.45984L145.605228 791.45984C206.821967 872.00768 299.267551 937.07264 407.322429 961.40288L407.322429 961.40288ZM489.450701 791.47008 357.151163 791.47008C390.041441 863.19104 435.536074 925.34784 489.440443 973.44512L489.440443 791.47008 489.450701 791.47008ZM489.450701 537.1392 298.118902 537.1392C300.652081 608.95232 314.035871 677.39648 336.783186 741.0176L489.450701 741.0176 489.450701 537.1392ZM52.369948 537.1392C56.338934 611.04128 77.711974 680.3456 112.448297 741.0176L283.750559 740.83328C262.890304 677.4272 250.450045 608.82944 248.080963 537.12896L52.369948 537.12896 52.369948 537.1392ZM621.637425 62.59712C663.501509 111.0016 699.847987 169.472 726.266872 232.52992L883.364882 232.52992C822.158397 151.98208 729.723069 86.91712 621.637425 62.59712L621.637425 62.59712ZM539.519409 232.52992 671.818947 232.52992C638.928666 160.8192 593.423777 98.65216 539.519409 50.54464L539.519409 232.52992ZM539.519409 486.8608 730.851205 486.8608C728.318029 415.05792 714.923981 346.60352 692.176666 282.9824L539.519409 282.9824 539.519409 486.8608ZM976.600161 486.8608C972.631173 412.93824 951.247877 343.6544 916.521812 282.96192L745.199037 283.15648C766.069548 346.5728 778.509806 415.16032 780.878892 486.8608L976.600161 486.8608ZM145.605228 232.52992 302.703235 232.52992C329.132375 169.46176 365.468598 110.99136 407.322429 62.58688 299.267551 86.91712 206.821967 151.98208 145.605228 232.52992L145.605228 232.52992ZM489.450701 50.55488C435.54633 98.6624 390.041441 160.82944 357.161418 232.54016L489.450701 232.54016 489.450701 50.55488ZM489.450701 282.9824 336.783186 282.9824C314.035871 346.60352 300.652081 415.05792 298.118902 486.8608L489.440443 486.8608 489.440443 282.9824 489.450701 282.9824ZM248.080963 486.8608C250.450045 415.16032 262.890304 346.5728 283.750559 283.15648L112.448297 282.96192C77.711974 343.6544 56.338934 412.94848 52.369948 486.8608L248.080963 486.8608ZM514.485053 1024C231.281997 1024 1.696148 794.76736 1.696148 512 1.696148 229.23264 231.281997 0 514.485053 0 797.68811 0 1027.273961 229.23264 1027.273961 512 1027.273961 794.76736 797.68811 1024 514.485053 1024Z" fill="#2468e4" p-id="36855"></path></svg>