<svg t="1721013982040" class="icon" viewBox="0 0 1024 1024" version="1.1" xmlns="http://www.w3.org/2000/svg" p-id="5695" width="200" height="200"><path d="M270.336 537.3952c2.9184 0 5.8368 0.7168 8.448 2.048l232.96 121.344 233.0112-121.344a18.3296 18.3296 0 0 1 26.7264 15.9744v168.8576c0 6.656-3.7376 12.8-9.728 15.9744L511.7952 870.4l-249.9584-130.1504a18.0224 18.0224 0 0 1-9.728-15.9744v-168.8576c0-9.9328 8.1408-18.0224 18.176-18.0224z m250.0096-381.7984l391.3728 199.0656a17.92 17.92 0 0 1 0 32.1024l-391.3728 199.0656a18.432 18.432 0 0 1-16.6912 0L112.2816 386.7648a17.92 17.92 0 0 1 0-32.1024L503.6544 155.648a18.432 18.432 0 0 1 16.6912 0zM844.8 358.4a25.6 25.6 0 0 1 25.6 25.6v358.4a25.6 25.6 0 1 1-51.2 0v-358.4a25.6 25.6 0 0 1 25.6-25.6z" fill="#ffffff" p-id="5696"></path></svg>