<?xml version="1.0" standalone="no"?><!DOCTYPE svg PUBLIC "-//W3C//DTD SVG 1.1//EN" "http://www.w3.org/Graphics/SVG/1.1/DTD/svg11.dtd"><svg t="1720775582933" class="icon" viewBox="0 0 1024 1024" version="1.1" xmlns="http://www.w3.org/2000/svg" p-id="9623" xmlns:xlink="http://www.w3.org/1999/xlink" width="200" height="200"><path d="M837.818182 1024H186.181818c-102.865455 0-186.181818-83.316364-186.181818-186.181818V186.181818c0-102.865455 83.316364-186.181818 186.181818-186.181818h651.636364c102.865455 0 186.181818 83.316364 186.181818 186.181818v651.636364c0 102.865455-83.316364 186.181818-186.181818 186.181818z" fill="#E12323" p-id="9624"></path><path d="M511.767273 942.312727c-92.625455 0-185.483636-33.512727-258.792728-101.236363-74.705455-69.12-117.992727-163.374545-122.181818-265.076364-3.723636-101.701818 32.116364-198.749091 101.236364-273.687273a381.44 381.44 0 0 1 111.243636-83.083636c11.636364-5.585455 25.6-0.930909 31.185455 10.472727 5.585455 11.636364 0.930909 25.6-10.472727 31.185455-36.770909 18.152727-69.585455 42.589091-97.512728 73.076363a332.450909 332.450909 0 0 0-88.669091 240.407273 332.567273 332.567273 0 0 0 107.054546 232.727273c135.447273 125.44 347.694545 117.061818 472.901818-18.385455 60.741818-65.629091 92.16-151.04 88.669091-240.407272a332.8 332.8 0 0 0-107.287273-232.727273c-20.247273-18.618182-42.589091-34.909091-66.56-47.941818-11.170909-6.283636-15.36-20.247273-9.309091-31.650909 6.283636-11.170909 20.247273-15.36 31.650909-9.309091 27.229091 14.894545 52.829091 33.28 75.869091 54.690909 74.705455 69.12 118.225455 163.374545 122.181818 265.076363 3.956364 101.701818-31.883636 198.981818-101.003636 273.687273-75.170909 81.221818-177.570909 122.181818-280.203636 122.181818z" fill="#FFFFFF" p-id="9625"></path><path d="M512 477.556364c-12.8 0-23.272727-10.472727-23.272727-23.272728V144.523636c0-12.8 10.472727-23.272727 23.272727-23.272727s23.272727 10.472727 23.272727 23.272727v309.527273c0 13.032727-10.472727 23.505455-23.272727 23.505455z" fill="#FFFFFF" p-id="9626"></path></svg>